<svg width="24" height="24" viewBox="0 0 24 24" fill="none" xmlns="http://www.w3.org/2000/svg">
<path d="M6.46667 20.4H8.13333V17.4667H11.0667V15.8H8.13333V12.8667H6.46667V15.8H3.53333V17.4667H6.46667V20.4ZM13.6333 19.2333H20.3333V17.6H13.6333V19.2333ZM13.6333 15.6667H20.3333V14H13.6333V15.6667ZM14.8667 10.2333L16.9 8.2L18.9333 10.2333L20.1333 9.03333L18.1 7L20.1333 4.96667L18.9333 3.76667L16.9 5.8L14.8667 3.76667L13.6667 4.96667L15.7 7L13.6667 9.03333L14.8667 10.2333ZM4.03333 7.83333H10.5667V6.16667H4.03333V7.83333ZM2 24C1.46667 24 1 23.8 0.6 23.4C0.2 23 0 22.5333 0 22V2C0 1.46667 0.2 1 0.6 0.6C1 0.2 1.46667 0 2 0H22C22.5333 0 23 0.2 23.4 0.6C23.8 1 24 1.46667 24 2V22C24 22.5333 23.8 23 23.4 23.4C23 23.8 22.5333 24 22 24H2ZM2 22H22V2H2V22Z" fill="white"/>
</svg>
